<?xml version="1.0" encoding="utf-8"?>
<!-- Generator: Adobe Illustrator 26.3.1, SVG Export Plug-In . SVG Version: 6.00 Build 0)  -->
<svg version="1.1" id="Layer_1" xmlns="http://www.w3.org/2000/svg" xmlns:xlink="http://www.w3.org/1999/xlink" x="0px" y="0px"
	 viewBox="0 0 2560 1440" style="enable-background:new 0 0 2560 1440;" xml:space="preserve">
<style type="text/css">
	.st0{font-family:'TimesNewRomanPS-BoldMT';}
	.st1{font-size:113.4804px;}
	.st2{letter-spacing:-3;}
	.st3{font-family:'Arial-BoldMT';}
	.st4{font-size:42.0976px;}
	.st5{letter-spacing:-1;}
</style>
<g>
	<path d="M1364.47,532.94c-2.64,9.36-6.89,20.67-8.88,32.36c-2.37,13.89-2.59,28.12-4.14,42.17c-0.92,8.26,4.04,10.47,10.51,12.45
		c9.3,2.85,18.85,5.49,27.49,9.82c17.98,9,35.35,19.21,53.12,28.64c22.3,11.83,45.13,22.7,66.99,35.27
		c14.9,8.56,28.74,19.04,42.68,29.17c19.76,14.35,39.29,29.01,58.67,43.87c6.57,5.04,12.36,11.11,18.52,16.72
		c-9.4,12.84-21.83,9.83-31.58,10.11c-9.49,0.27-19.16-5.82-28.46-9.02c-0.69,5.25-5.7,8.56-12.78,6.96
		c-9.15-2.06-18.4-3.65-24.79-12.61c-7.78-10.91-12.45-9.72-23.71-3.12c-8.34,4.89-18.75,6.45-28.42,8.71
		c-2.05,0.48-6.04-1.9-7.01-3.96c-0.82-1.74,1.2-5.06,2.42-7.44c1.07-2.08,2.84-3.78,4.2-5.72c6-8.54,5.08-12.87-3.8-18.03
		c-10.41-6.05-18.16-4.47-25.44,5.62c-2.64,3.66-4.66,7.79-6.79,11.8c-6.54,12.33-15,13.95-25.96,4.82
		c-1.14-0.95-2.07-2.17-3.76-3.97c6.78-10.58,24.02-15.71,17.64-33.36c5.74-0.5,10.08-0.88,14.69-1.28
		c-5.24-9.18-9.06-10.91-19.72-9.59c-4.73,11.7-9.15,23.33-14.12,34.72c-3.31,7.59-18.44,6.74-25.49-1.34
		c1.59-3.06,3.24-6.2,4.86-9.35c4.13-8.04,2.51-16.62-4.22-22.47c-5.45-4.74-16.9,1.16-20.98,9.05
		c-6.67,12.89-13.58,25.94-22.55,37.22c-4.11,5.17-13.18,6.76-20.32,8.93c-2.09,0.63-6.11-1.73-7.65-3.87
		c-1.03-1.43-0.07-5.68,1.45-7.31c6.94-7.45,13.33-14.86,16.27-25.13c1.06-3.7,6.24-6.2,9.49-9.31c2.13-2.04,6.28-5.23,5.86-6.09
		c-1.73-3.5-4.55-6.71-7.64-9.19c-1.6-1.29-4.6-0.83-7.2-1.19c4.76,13.4-0.9,22.72-14.6,22.07c-32.13-1.53-64.83,1.78-95.93-9.91
		c-0.55-0.21-1.2-0.18-1.8-0.22c-43.52-2.77-87.12-9.15-130.62-3.2c-19.48,2.67-38.92,7.66-57.05,17.67
		c-11.42,6.3-26.1,9.7-39.18,9.34c-25.73-0.71-46.34,9.82-65.72,24.12c-3.13,2.31-2.8,9.79-3.4,14.95
		c-0.81,7.03-1.89,13.3-10.77,14.16c-8.18,0.79-12.02-3.24-11.76-10.88c0.38-11.23-4.28-22.39,1.59-33.84
		c3.43-6.69-4.07-11.4-8.78-13.67c-6.69-3.22-6.54-8.32-4.6-12.54c0.83-1.8,7.87-1.9,11.63-0.94c5.38,1.36,10.2,4.79,15.52,6.58
		c4.38,1.47,9.29,3.06,13.69,2.48c24.63-3.28,47.42-12.84,70.25-21.99c4.09-1.64,7.5-4.95,2.62-10.58
		c-5.65-6.5-6.6-16.89-16.39-20.05c-2.92-0.94-5.95-1.53-11.08-2.82c2.78,6.78,5.42,11.22,6.27,15.97
		c0.64,3.61,0.24,9.01-2.02,11.03c-1.9,1.7-7.64,0.71-10.8-0.87c-8.72-4.35-17.5-8.93-25.28-14.73
		c-7.92-5.9-15.12-13.01-15.04-24.34c0.05-6.91,4.89-8.68,10.1-9.43c6.26-0.9,12.68-0.61,18.95-1.44
		c17.38-2.31,34.76-1.72,50.91,4.81c16.01,6.46,31.84,11.75,49.23,13.23c5.02,0.43,9.5,7.2,16.16,12.64
		c-21.81,10.31-42.24,0.24-61.44,4.79c2.69,9.9,18.76,16.34,28.02,13.22c11.79-3.98,24.16-6.22,36.25-9.34
		c3.41-0.88,6.69-2.24,11.52-3.89c-7.84-7.57-17.32-10.39-19.08-20.43c-0.29-1.66-3.45-3.64-5.55-4.01
		c-10.65-1.9-10.82-9.68-10.79-17.88c0.02-7-1.11-14.14-0.06-20.96c0.79-5.12,3.14-12.61,6.77-14.04
		c4.54-1.78,12.42-0.16,16.53,3.02c11.56,8.93,18.96,21.49,24.29,35.03c5.34,13.56,12.35,25.9,25.12,33.6
		c4.89,2.95,10.78,4.61,16.43,5.85c11.99,2.64,24.1,4.76,36.21,6.79c5.29,0.89,10.7,1.49,16.05,1.47
		c16.45-0.07,32.9-0.84,49.34-0.63c6.17,0.08,12.28,2.54,18.49,3.08c7.48,0.65,15.06,0.16,22.57,0.63
		c11.84,0.74,23.65,1.86,37.01,2.95c-8.19-7.57-15.68-13.89-26.36-14.13c-23.05-0.52-46.1-0.62-69.14-1.26
		c-6.85-0.19-13.68-2.35-20.51-2.31c-14.06,0.09-28.14,1.77-42.17,1.33c-6.07-0.19-13.19-2.59-17.82-6.42
		c-10.61-8.78-20.22-18.83-29.65-28.91c-2.02-2.16-1.5-6.67-2.22-10.08c-1.01-4.76-2.23-9.48-3.09-14.27
		c-0.37-2.06-0.05-4.25-0.05-6.38c2.29,0.13,4.71-0.17,6.82,0.51c1.89,0.61,3.78,2,5.06,3.55c11.18,13.57,22.03,27.41,33.45,40.77
		c2.37,2.77,6.74,5.41,10.17,5.4c13.87-0.04,27.74-1.51,41.62-1.75c12.1-0.21,24.21,0.61,36.32,0.82
		c8.61,0.15,17.22,0.03,27.33,0.03c-30.23-14.38-58.6-28.81-87.75-41.41c-18.53-8.01-38.02-14.02-57.48-19.55
		c-11.75-3.34-24.23-4.29-36.43-5.88c-15.81-2.05-31.8-2.99-47.5-5.66c-16.72-2.84-24.41,1.56-29.82,17.98
		c-1.36,4.14-4.99,8.91-8.81,10.57c-6.17,2.67-13.41,4.36-20.11,4.09c-25.34-1.03-50.02,3.47-74.7,7.8
		c-6,1.05-11.88,4.05-17.23,7.16c-8.68,5.03-10.58,11.95-5.23,20.09c4.38,6.67,10.22,12.35,15.14,18.69
		c7.26,9.36,14.85,18.55,21.17,28.52c3.53,5.57,1.08,8.86-6.46,9.71c-13.12,1.49-22.8-5.26-31.65-12.41
		c-16.73-13.52-32.49-28.36-43.44-47.24c-13.62-23.47-5.12-43.12,19.78-49.91c21.22-5.79,43.21-10.58,60.94-23.12
		c12.08-8.54,24.96-4.03,36.61-8.97c2.39-1.01,6.57,1.81,9.77,3.22c2.57,1.13,4.91,2.79,9.67,5.56c-1.7-6.72-2.49-11.03-3.89-15.12
		c-2.33-6.81,0.64-8.85,6.98-10.31c10.33-2.38,20.43-5.83,30.53-9.12c3.85-1.26,5.63-3.33,3.72-8.3
		c-2.55-6.64-3.49-13.89-5.38-22.03c-7.56,0-15.78-0.74-23.82,0.13c-31.13,3.37-60.98-25.52-68.67-50.33
		c-10.68-34.46-6.53-66.58,12.29-96.99c10.19-16.47,26.13-26.4,42.69-35c20.79-10.8,43.07-17.98,66.67-17.01
		c12.26,0.5,15.49-8.14,20.21-15.09c14.21-20.92,32.49-36.86,55.1-47.91c28.91-14.12,59.58-20.95,91.64-19.04
		c27.59,1.64,52.18,11.09,73.31,30.16c13.59,12.27,23.69,26.49,32.79,41.93c1.13,1.91,4.56,3.96,6.55,3.64
		c49.22-7.98,87.58,10.4,118.66,47.67c19.48,23.35,28.68,50.22,25.47,80.1c-1.9,17.71-10.69,33.63-22.66,47.35
		c-9.9,11.35-21.32,21.39-35.95,24.63C1393.4,533.1,1379.8,532.13,1364.47,532.94z M1277.87,639.11
		c-9.76-15.77-33.17-22.94-43.75-12.68c14.9,4.21,29.43,8.31,43.96,12.42c4.59,2.6,9.76,4.54,13.67,7.92
		c9.02,7.82,19.83,9.87,31,11.6c7.65,1.18,15.37,2.38,22.78,4.51c12.7,3.64,24.95,9.36,37.85,11.66
		c10.72,1.92,18.11,7.38,23.89,15.19c8.93,12.08,20.56,16.65,34.96,15.46c13.11-1.08,24.59,1.9,34.7,10.98
		c5.22,4.68,11.98,7.63,18.05,11.37c0.82-1.37,1.64-2.73,2.45-4.1c-10.14-6.33-21.13-11.65-30.22-19.24
		c-12.43-10.38-24.85-18.69-41.94-18.44c-7.84,0.12-14.3-3.91-19.62-10.66c-3.83-4.87-9.81-9.6-15.65-11.01
		c-14.43-3.49-29.37-4.82-44.02-7.49c-5.76-1.05-12.35-1.97-16.72-5.33C1313.75,639.33,1295.16,642.3,1277.87,639.11z
		 M1338.35,473.72c1.99,1.04,3.65,1.68,5.05,2.68c13.14,9.28,27.63,13.82,43.72,12c5.49-0.62,11.07-1.79,16.24-3.7
		c10.27-3.78,18.24-11.26,20.85-21.53c3.77-14.78,3.25-29.8-3.76-44.21c-11.78-24.21-31.83-39.11-57.11-43.11
		c-19.59-3.1-40.26,0.55-60.45,1.28c-4.53,0.16-7.7-0.4-9.53-5.75c-12.02-35.23-36.81-56.86-72.59-65.85
		c-24.35-6.12-49.05-7.46-73.26,0.29c-18.93,6.06-35.39,16.67-45.94,34.04c-8,13.18-14.57,27.22-21.95,41.2
		c-12.47-0.68-26.89-2.44-41.25-2.02c-24.2,0.7-46.53,7.69-64.04,25.45c-14.26,14.47-23.27,31.57-22.9,52.52
		c0.35,20.55,18.36,38.13,39.36,39.02c16.66,0.71,31.04-4.37,45.7-15.34c7.61,28.94,14.92,56.78,22.25,84.65
		c21.86,0,42.73-0.59,63.56,0.18c16.9,0.63,33.91,1.88,50.55,4.69c20.44,3.45,40.65,8.43,60.79,13.44
		c18.23,4.53,36.26,9.88,54.3,15.11c6.26,1.81,12.3,4.37,18.44,6.59c1.88-6.08,4.14-12.07,5.59-18.25
		C1320.78,549.71,1329.4,512.3,1338.35,473.72z"/>
	<path d="M700.47,751.57c-18.52,3.43-26.25,16.96-30.93,33.22c-5.87,20.35-0.59,38.82,13.16,53.59
		c7.59,8.16,18.04,13.68,30.06,16.98c12.06,3.31,22.81,1.24,33.45-1.51c11.55-2.99,19.64-11.89,25.07-22.69
		c13.96-27.71,6.69-69.45-19.64-86.77c-11.17-7.35-24.26-11.78-36.56-17.36c-0.43-0.19-1.68,1.42-2.79,2.41
		c-0.55-2.17-0.48-5.14-1.59-5.68c-7.09-3.47-8.84-9.94-6.42-15.85c2.7-6.58,6.84-14.04,12.54-17.66
		c20.62-13.09,48.18-9.34,63.14,12.32c17.81,25.78,26.07,55.06,29.94,85.71c1.74,13.74,2.68,27.6,3.67,41.42
		c1.2,16.64-7.99,29.49-16.14,42.67c-0.92,1.49-2.26,2.8-2.84,4.4c-3.88,10.58-12.41,16.26-22.6,16.64
		c-15.06,0.56-23.63,11.22-34.81,17.95c5.45,9.14,13.3,10.68,25.65,4.05c25.94-13.92,46.81-32.85,56.54-61.66
		c6-17.75,5.03-36.29,5.59-54.7c1.03-33.79-15.45-60.77-32.22-87.98c-5.54-8.99-12.92-17.38-12.45-29.47
		c0.31-8.09,5.23-12.23,11.1-13.37c9.37-1.83,19.84-2.1,27.71,4.41c15.26,12.63,30.95,25.11,44.19,39.7
		c13.97,15.39,24.97,33.46,29.54,54.3c2.05,9.36,2.82,19.05,3.59,28.64c0.8,9.98-0.25,20.24,1.67,29.96
		c1.46,7.4,2.82,14.7,11.32,20.45c22.12,14.98,16.53,39.55,1.18,56.1c-3.83,4.13-7.79,8.17-11.23,12.61
		c-6.11,7.88-12.03,15.92-17.7,24.13c-3.17,4.59-4.77,10.56-8.65,14.29c-9.24,8.9-19.08,17.28-29.35,24.97
		c-5.04,3.77-11.36,6.52-17.51,8.01c-13.9,3.35-27.28-0.39-40.04-5.72c-33.91-14.15-64.33-34.23-93.94-55.68
		c-5.92-4.29-12.4-7.8-19.39-12.16c1.61,11.28,10.63,14.77,17.38,19.79c19.93,14.79,39.79,29.77,60.65,43.16
		c10.09,6.48,22.05,10.71,33.73,13.87c10.66,2.88,22.08,2.88,33.16,4.23c13.73,1.68,24.37-5.06,34.9-12.43
		c7.26-5.08,14.37-11.42,24.18-9.42c5.75,1.17,11.79,2.77,16.71,5.79c21.89,13.46,45.84,21.85,69.72,30.8
		c14.37,5.39,28.79,6.37,43.65,7.93c15.79,1.66,31.83,5.04,46.58,10.75c8.22,3.18,13.94,12.71,20.99,19.16
		c1.37,1.25,3.62,1.95,5.53,2.13c14.44,1.36,29.39,0.64,43.23,4.22c19.61,5.07,38.13,13.45,49.22,32.56
		c12.01,20.69,24.22,41.29,37.16,61.41c3.85,5.99,9.29,12.92,17.8,11.87c4.79-0.6,11.4-3.27,13.31-7c4.77-9.3,9.09-19.49,5.68-27.74
		c-9.8-4.95-17.63-8.9-26.44-13.34c1.6,13.2,19.41,17.28,16.17,32.59c-8.9,2.61-15.49-3.46-19.92-9.28
		c-10.54-13.85-20-28.59-29.06-43.48c-8.62-14.15-18.06-27.92-32.69-35.64c-13.3-7.02-27.98-11.18-43.9-10.13
		c-7.46,0.49-15.53-2.13-22.64-5.03c-3.86-1.58-6.29-6.69-8.49-11.48c18.33-0.33,35.51-0.84,52.74,5.52
		c8.39,3.1,19.3-0.51,29.06-1.26c1.71-0.13,3.35-1.54,5.04-1.6c24.23-0.93,48.57-3.48,72.67-2.03c20.29,1.22,38.91-3.84,58.05-7.9
		c11.35-2.41,22.95-3.95,34.02-7.25c10.43-3.12,20.23-8.31,30.49-12.09c8.06-2.97,16.77-4.38,24.49-7.98
		c6.54-3.06,13.02-7.41,17.83-12.72c8.18-9.05,38.08-27.95,49.92-30.08c4.41-0.79,8.77-2.03,13.05-3.38
		c9.16-2.89,19.94,0.75,25.54,8.82c4.13,5.95,1.08,16.37-5.82,18.86c-6.41,2.32-12.88,4.72-19.54,6
		c-8.14,1.56-14.51,5.2-21.23,10.18c-7.73,5.73-17.73,8.44-26.82,12.29c-9.71,4.11-19.91,7.25-29.19,12.16
		c-20.49,10.83-42.31,17.23-64.76,22.29c-8.98,2.03-18.44,4.64-26.02,9.55c-15.49,10.03-31.9,8.52-48.19,5.73
		c-9.73-1.67-18.91-6.64-28.3-10.26c-6.25-2.41-23.89,2.06-27.4,7.09c-3.4,4.87,2.41,16.79,9.14,20.44
		c5.06,2.75,11.18,5.76,13.77,10.37c4.45,7.92,10.18,12.65,18.41,15.99c4.46,1.81,7.79,6.42,12.58,10.59
		c5.19-11.34,15.5-7.92,24.14-6.74c12,1.63,20.07-5.55,26.29-12.33c16.06-17.52,31.17-36.31,51.51-48.58
		c13.24-7.99,28.98-12.84,44.23-16.24c14.88-3.31,30.65-2.45,45.89-4.45c9.53-1.25,18.87-4.14,28.15-6.82
		c2.48-0.71,4.5-3.24,6.54-5.13c1.93-1.79,3.24-4.8,5.44-5.65c15.32-5.93,16.97-18.9,18.3-32.73c0.58-6.03,3.35-12.02,5.96-17.63
		c2.89-6.22,7.9-9.26,15.36-8.65c9.67,0.79,16.39-4.45,21.07-12.55c4.3-7.43,9.4-13.2,19.24-12.54c6.96,0.47,14.03-0.64,20.97-0.04
		c2.76,0.24,6.56,2.65,7.56,5.05c0.94,2.25-0.24,6.78-2.13,8.56c-5.62,5.31-9.85,13.05-19.76,12.15c-2.44-0.22-6.17,2.51-7.64,4.91
		c-7.31,11.9-17.02,17.06-30.9,12.88c-1.38-0.42-3-0.06-5.8-0.06c0,8.09-0.29,15.9,0.06,23.68c0.63,14.03-5.81,25.7-13.29,36.41
		c-3.04,4.35-9.92,7.34-15.53,8.36c-19.06,3.46-38.25,6.77-57.54,8.2c-16.04,1.19-31.66,0.36-44.13,13.8
		c-4.16,4.48-11.99,6.36-18.49,7.69c-9.24,1.9-15.26,6.74-20.24,14.51c-9.66,15.06-21.76,28.31-36.11,38.82
		c-11.09,8.12-24.6,11.1-38.53,9.43c-7.35-0.88-10.8,2.11-11.3,9.09c-0.41,5.75-0.91,11.52-0.86,17.28
		c0.13,14.11-5.65,24.71-17.28,32.78c-16.23,11.25-41.88,3.27-48.53-14.84c-2.51-6.83-7.87-12.57-11.33-19.12
		c-5.14-9.72-8.9-20.28-14.81-29.47c-7.27-11.3-15.93-21.74-24.51-32.12c-1.83-2.21-5.9-3.51-8.97-3.58
		c-23.95-0.54-47.92-0.99-71.88-0.79c-12.08,0.1-15.9,7.74-10.46,18.17c2.14,4.11,4.25,8.76,4.36,13.22c0.08,3.09-2.62,7.1-5.27,9.2
		c-2.87,2.28-7.12,2.82-12.46,4.72c1.89,6.03,4.19,12.13,5.69,18.42c3.19,13.42-6.55,21.97-19.73,18.38
		c-28.41-7.72-47.78-27.63-65.4-49.19c-4.78-5.85-5.31-15.52-6.77-23.63c-2.01-11.14-3.13-22.19-9.79-32.15
		c-7-10.46-17.65-13.5-28.41-16.74c-12.84-3.85-26.03-6.63-38.63-11.12c-7.46-2.65-13.94-7.96-21.13-11.55
		c-3.3-1.65-7.2-2.72-10.87-2.85c-14.57-0.52-29.16-0.29-43.73-0.83c-28.83-1.07-52.7-13.29-74.9-31.29
		c-16.12-13.07-34.88-22.82-51.89-34.87c-15.39-10.9-30.14-22.74-44.9-34.51c-7.62-6.07-14.86-12.67-21.88-19.42
		c-8.66-8.33-18.54-12.08-30.72-12.12c-23.59-0.07-39.63-22.08-30.39-41.83c1.26-2.7-1.21-6.91-1.06-10.39
		c0.4-9.41-0.02-19.15,2.36-28.1c2.31-8.68,12.28-12.6,19.38-9.91c4.2,1.59,6.25,12.66,3.66,19.85c-0.4,1.12-0.64,2.56-1.47,3.21
		c-11.91,9.43-4.26,19.94-1.67,30.1c0.5,1.96,1.48,4.33,3.02,5.42c8.8,6.27,17.84,12.22,26.8,18.28c0.76-0.87,1.52-1.75,2.29-2.62
		c-2.94-2.77-5.41-6.8-8.9-8.07c-11.3-4.12-13.76-13.15-16.23-23.45c-4.71-19.6,0.97-37.53,7.07-55.48
		c1.06-3.12,4.17-5.86,6.92-8.03c15.75-12.42,31.84-24.42,47.49-36.96c14.34-11.5,29.51-20.03,48.69-15.38
		c15.67,3.8,20.07,18.49,9.53,30.38c-0.51,0.57-0.36,1.73-0.52,2.62L700.47,751.57z M981.67,1087.79c-0.98,0.19-1.96,0.37-2.94,0.56
		c-0.76,2.66-2.77,5.74-2.05,7.91c1.99,6.02,3.78,13.03,8.04,17.19c11.41,11.15,23.71,21.91,41.72,18.14
		c0.8-9.45-2.01-12.71-11.91-15.08C1000.02,1113.03,981.01,1111.25,981.67,1087.79z M956.57,1036.41c3.48,5.5,7.5,12.03,11.91,18.3
		c0.22,0.31,4.68-1.21,5.61-2.79c2.56-4.35,4.3-9.18,7.26-15.82c-3.51-0.69-7.43-2.1-11.33-2.06
		C965.82,1034.07,961.63,1035.45,956.57,1036.41z M1033.75,1055.71c-3.19,0-6.67,0-10.16,0c0.6,5.2,1.19,10.4,1.79,15.59
		c0.8-0.1,1.61-0.2,2.41-0.3C1029.48,1066.67,1031.17,1062.34,1033.75,1055.71z"/>
	<path d="M1991.64,660.26c-13.85,0.09-23.43-1.8-33.18,6.29c-8.04,6.67-20.04,8.31-29.59,13.46c-14.82,7.99-29.29,16.69-43.47,25.77
		c-31.61,20.24-62.91,40.96-94.44,61.32c-5.34,3.45-10.92,6.97-16.9,8.83c-3.5,1.09-9.55,0.36-11.74-2.03
		c-4.42-4.83,1.17-8.13,4.59-10.45c16.82-11.4,33.9-22.41,50.82-33.66c2.34-1.56,4.29-3.72,5.28-7.19
		c-6.76,3.7-13.47,7.48-20.28,11.09c-15.86,8.4-31.85,16.57-47.64,25.11c-12.17,6.58-23.76,14.34-36.25,20.22
		c-15.38,7.24-31.79,12.52-48.57,5.24c-4.76-2.07-8.96-7.87-11.09-12.94c-2.77-6.56,2.16-9.91,8.41-10.42
		c7.56-0.61,15.22-1.5,22.74-0.94c17.91,1.34,32.47-6.1,47.04-15.23c25.96-16.28,52.63-31.41,78.69-47.55
		c19.68-12.19,39.53-24.28,58.11-38.03c26.98-19.97,55.6-34.79,89.37-39.43c9.43-1.3,17.9-2.75,27.34,0.18
		c9.44,2.93,18.43,10.62,18.86,20.18c1.19,26.75-5.79,51.52-21.01,73.4c-16.25,23.36-39,39.53-63.6,53.17
		c-9.22,5.11-18.2,11.13-28.06,14.36c-3.79,1.24-10.99-3-14.39-6.77c-3.94-4.36-0.01-9.56,4.33-11.91
		c9.06-4.9,18.22-10.27,28.02-13.01c16.7-4.66,27.22-16.39,37.75-28.62c3.08-3.58,6.67-6.77,9.46-10.55
		c5.06-6.84,10.11-13.75,14.4-21.07C1981.65,680.49,1985.88,671.42,1991.64,660.26z M1889.15,680.69c-0.42-0.95-0.83-1.9-1.25-2.85
		c-8.02,4.59-16.03,9.19-24.04,13.78c0.44,0.8,0.88,1.6,1.31,2.4C1873.17,689.58,1881.16,685.14,1889.15,680.69z"/>
	<path d="M1733.29,919.72c22.54-8.17,32.12-6.18,44.92,9.27c17.99,21.71,39.84,38.93,62.32,55.51
		c10.95,8.08,21.46,17.14,33.41,23.37c11.11,5.79,23.62,9.79,35.97,12.14c21.03,4,31.07-13.9,25.64-32.44
		c-5.54-18.92-12.02-37.56-17.77-56.43c-3.22-10.58-1.5-14.99,6.23-16.46c8.07-1.53,10.86,3.83,12.97,10.58
		c5.03,16.13,12.16,31.77,15.52,48.21c3.47,16.96,4.82,34.64,4.62,51.97c-0.15,13.75-11.73,21.75-25.46,22.71
		c-40.5,2.83-72.52-14.84-101.13-40.94c-28.83-26.29-57.47-52.8-86.26-79.14C1741.38,925.44,1738.02,923.3,1733.29,919.72z"/>
	<path d="M700.16,751.87c8.84-2.18,17.59-5.59,26.55-6.28c22.95-1.78,32.77,9.27,38.75,28.98c5.03,16.58,4.1,33.31-3.34,49.47
		c-4.42,9.6-12.34,12.77-21.92,14.55c-16.39,3.04-31.72,0.17-46.28-7.3c-9.97-5.12-12.29-15.07-13.63-24.93
		c-1.1-8.05-1.97-16.39-1.06-24.39c1.06-9.3,6.8-16.67,14.01-22.77c2.66-2.25,4.83-5.06,7.22-7.63
		C700.47,751.57,700.16,751.87,700.16,751.87z M729.28,771.33c3,6,5.01,11.59,8.33,16.24c4.37,6.11,1.41,10.91-2.7,14.01
		c-6.77,5.1-13.48-0.05-19.26-3.22c-3.74-2.05-6.39-6.38-2.64-11.63c1.53-2.15,1.38-5.5,1.99-8.31c-0.89-0.62-1.79-1.24-2.68-1.85
		c-1.39,1.7-4.07,3.49-3.96,5.07c0.77,10.5,0.57,21.47,3.75,31.29c3.26,10.09,18.59,10.64,23.56,1.59
		c4.3-7.83,8.13-15.99,11.29-24.34C750.04,782.03,739.36,770.44,729.28,771.33z"/>
	<path d="M1806.68,781.09c-0.91,0.05-1.91,0.37-2.72,0.11c-4.28-1.39-8.52-2.93-12.78-4.41c2.73-3.06,4.9-7.08,8.27-9.02
		c12.43-7.15,25.31-13.49,37.88-20.39c4.07-2.23,7.68-5.29,11.54-7.91c14.19-9.65,28.01-19.92,42.73-28.68
		c10.24-6.09,21.59-4.12,31.8,1.44c1.19,0.65,1.09,7.56-0.31,8.4c-7.86,4.72-15.93,9.9-24.65,12.23
		c-12.69,3.39-22.38,10.27-32.63,18.11c-14.93,11.42-31.95,20.17-48.38,29.53c-2.82,1.61-7.13,0.6-10.76,0.81
		C1806.68,781.23,1806.68,781.16,1806.68,781.09z"/>

	<text transform="matrix(1 0 0 1 976.5361 891.1189)" class="st0 st1 st2">RM. PAK BAGONG</text>
	<text transform="matrix(1 0 0 1 981.3506 953.7068)" class="st3 st4 st5">Khas Ikan Mujair</text>
</g>
</svg>
